<svg width="512" height="512" viewBox="0 0 512 512" xmlns="http://www.w3.org/2000/svg">
  <!-- Loose Wire avatar — B: dark / near-black (per brand/loosewire/avatars-spec.html) -->
  <rect width="512" height="512" fill="#0f0f0f"/>
  <svg x="66" y="150" width="380" height="212" viewBox="0 0 180 100">
    <path d="M6 10 C18 10 18 90 33 90 C50 90 50 10 66 10 C82 10 82 90 99 90 C116 90 116 10 128 10" stroke="#f0f0f0" stroke-width="3.5" stroke-linecap="round" fill="none" opacity=".30"/>
    <path d="M18 10 C34 10 34 90 51 90 C68 90 68 10 84 10 C100 10 100 90 117 90 C134 90 134 10 150 10" stroke="#f0f0f0" stroke-width="3.5" stroke-linecap="round" fill="none" opacity=".60"/>
    <path d="M32 10 C48 10 48 90 69 90 C88 90 88 10 102 10 C116 10 116 90 135 90 C152 90 152 10 172 10" stroke="#f0f0f0" stroke-width="4" stroke-linecap="round" fill="none" opacity="1"/>
  </svg>
</svg>
